<?xml version="1.0" standalone="no"?>
<!DOCTYPE svg PUBLIC "-//W3C//DTD SVG 20010904//EN"
 "http://www.w3.org/TR/2001/REC-SVG-20010904/DTD/svg10.dtd">
<svg version="1.0" xmlns="http://www.w3.org/2000/svg"
 width="700.000000pt" height="700.000000pt" viewBox="0 0 700.000000 700.000000"
 preserveAspectRatio="xMidYMid meet">
<metadata>
Created by potrace 1.14, written by Peter Selinger 2001-2017
</metadata>
<g transform="translate(0.000000,700.000000) scale(0.100000,-0.100000)"
fill="#000000" stroke="none">
<path d="M848 6725 c-1 -1 -19 -5 -38 -8 -111 -15 -228 -71 -319 -153 -259
-235 -279 -642 -42 -874 37 -36 87 -75 111 -87 72 -35 190 -52 395 -57 209 -5
229 -7 330 -31 73 -17 260 -77 310 -100 17 -7 64 -27 105 -43 41 -17 183 -77
315 -135 422 -184 488 -196 685 -117 208 83 357 115 575 125 223 10 281 32
207 79 -100 63 -556 273 -1122 516 -151 65 -304 131 -340 146 -135 58 -387
189 -440 227 -75 56 -104 90 -145 176 -64 133 -207 249 -377 305 -65 22 -198
42 -210 31z m181 -320 c84 -43 124 -92 150 -185 34 -127 4 -283 -66 -344 -77
-68 -235 -86 -365 -42 -138 46 -181 110 -182 271 -1 90 2 106 26 156 52 105
130 163 236 177 70 9 141 -2 201 -33z"/>
<path d="M5990 6635 c-158 -29 -260 -75 -341 -156 -107 -107 -142 -222 -133
-439 13 -317 8 -394 -37 -506 -32 -80 -43 -157 -28 -186 21 -39 69 -52 184
-53 128 0 199 8 311 35 197 47 302 96 455 211 146 110 231 210 275 324 28 74
26 264 -4 359 -97 301 -372 467 -682 411z m250 -320 c96 -49 152 -153 153
-285 1 -76 -2 -90 -26 -131 -33 -55 -76 -94 -137 -122 -61 -28 -227 -31 -280
-5 -74 38 -108 81 -141 183 -39 121 -14 229 73 314 91 89 235 108 358 46z"/>
<path d="M2706 6559 c-36 -22 -58 -44 -101 -104 -83 -116 -143 -256 -152 -356
l-5 -55 43 -33 c162 -119 1315 -611 1433 -611 19 0 36 13 70 56 82 105 206
347 221 432 5 29 1 35 -41 65 -78 55 -277 155 -600 302 -175 80 -515 218 -649
262 -145 49 -191 58 -219 42z"/>
<path d="M4549 6005 c-51 -16 -128 -84 -170 -150 -44 -69 -209 -433 -209 -462
0 -10 504 -9 614 2 90 8 138 33 171 88 64 110 84 234 51 320 -52 136 -309 249
-457 202z"/>
<path d="M1143 4961 c-74 -54 -166 -205 -198 -326 -18 -71 -19 -105 -3 -140
16 -35 127 -108 268 -177 138 -67 441 -198 459 -198 16 0 37 25 112 134 126
185 259 411 259 441 0 28 -418 190 -695 269 -117 34 -152 33 -202 -3z"/>
<path d="M2889 4346 c-2 -2 -58 -7 -124 -10 -66 -4 -133 -9 -150 -11 -16 -3
-57 -7 -90 -11 -32 -3 -69 -10 -81 -14 l-21 -8 0 -781 c0 -712 1 -781 16 -782
9 0 25 -2 36 -4 32 -6 124 -16 280 -31 108 -10 562 -12 640 -3 206 23 369 82
487 174 178 140 242 312 242 655 0 166 -7 228 -35 331 -68 245 -255 402 -561
470 -78 18 -136 22 -364 25 -149 2 -273 2 -275 0z m508 -419 c145 -32 221 -89
250 -187 31 -105 17 -500 -18 -500 -4 0 -11 -9 -14 -21 -15 -45 -140 -108
-250 -125 -48 -7 -406 -12 -458 -6 l-37 4 0 423 0 424 38 3 c113 9 422 0 489
-15z"/>
<path d="M5085 4334 c-98 -15 -247 -63 -310 -100 -112 -65 -191 -180 -211
-305 -34 -219 33 -398 185 -494 38 -23 180 -81 204 -82 4 -1 35 -6 70 -12 79
-13 145 -19 282 -26 311 -15 359 -31 353 -118 -4 -53 -40 -80 -135 -97 -95
-18 -364 -15 -522 5 -25 4 -62 8 -81 11 -88 11 -250 39 -315 54 -22 5 -43 10
-47 10 -5 0 -8 -94 -8 -209 0 -191 2 -210 18 -215 28 -9 186 -35 254 -42 34
-3 66 -8 69 -10 27 -16 523 -25 644 -11 186 20 342 80 437 166 93 85 138 198
139 346 0 230 -96 361 -336 456 -17 7 -64 17 -150 33 -52 10 -130 16 -245 21
-309 14 -350 24 -369 90 -18 64 19 99 127 122 97 20 407 19 517 -3 11 -2 40
-7 65 -10 25 -3 99 -17 165 -30 66 -13 125 -24 132 -24 9 0 12 52 12 204 l0
203 -37 11 c-207 61 -679 90 -907 56z"/>
<path d="M975 4152 c-59 -9 -63 -13 -103 -89 -22 -43 -59 -121 -82 -173 -23
-52 -50 -114 -61 -137 -10 -24 -28 -62 -38 -86 -11 -24 -29 -68 -41 -97 -12
-29 -29 -72 -40 -94 -32 -72 -206 -518 -239 -613 -17 -50 -31 -105 -31 -122 0
-52 86 -124 246 -204 125 -63 195 -76 266 -48 24 10 90 76 124 126 49 70 214
442 338 760 26 66 51 129 56 140 16 35 128 358 140 403 15 59 8 75 -49 106
-123 67 -405 141 -486 128z"/>
<path d="M1481 3289 c-94 -233 -251 -614 -289 -699 -11 -25 -31 -70 -45 -100
-13 -30 -35 -77 -47 -105 -12 -27 -35 -77 -50 -110 -78 -168 -203 -473 -230
-558 -24 -76 -155 -229 -305 -355 -49 -42 -96 -83 -102 -92 -48 -59 -87 -130
-113 -206 -28 -84 -29 -96 -27 -229 3 -130 5 -145 32 -210 23 -53 46 -86 97
-137 85 -85 124 -110 223 -144 70 -24 96 -28 205 -28 194 -1 266 15 381 90
234 149 344 518 223 744 -19 35 -24 55 -20 90 5 46 7 52 25 130 17 74 92 278
219 595 65 165 132 341 148 390 36 117 39 218 7 325 -13 41 -41 145 -63 230
-44 171 -84 314 -139 494 l-36 119 -94 -234z m-484 -2105 c148 -71 216 -225
169 -387 -40 -137 -162 -221 -306 -211 -57 4 -65 5 -115 19 -37 10 -103 51
-128 79 -94 108 -84 343 20 437 45 41 79 59 141 73 92 23 155 20 219 -10z"/>
<path d="M2217 2082 c-21 -25 -85 -164 -192 -417 -25 -58 -65 -197 -72 -248
-4 -29 -7 -81 -6 -116 4 -146 102 -248 293 -302 126 -37 153 -27 238 88 105
143 273 454 316 586 26 79 23 91 -43 144 -86 69 -320 207 -421 247 -82 33 -97
36 -113 18z"/>
<path d="M3250 1780 c8 -6 49 -28 90 -49 41 -21 194 -99 340 -173 146 -75 301
-151 345 -168 44 -17 94 -38 110 -45 17 -8 140 -57 275 -110 135 -53 304 -125
375 -160 72 -35 166 -78 210 -95 207 -83 351 -154 433 -214 46 -34 62 -53 67
-78 20 -89 118 -221 225 -300 104 -77 186 -102 340 -101 261 2 423 88 521 278
140 269 102 545 -102 746 -146 143 -321 190 -565 149 -70 -11 -93 -11 -179 4
-54 9 -164 39 -244 67 -80 28 -209 73 -286 100 -128 44 -267 80 -363 95 -42 6
-63 9 -112 18 -37 7 -80 11 -200 21 -41 4 -97 8 -125 11 -27 3 -302 7 -610 10
-410 4 -556 2 -545 -6z m2940 -637 c72 -22 140 -89 164 -159 19 -58 16 -169
-8 -224 -19 -46 -96 -121 -154 -151 -60 -30 -186 -33 -243 -5 -161 77 -228
275 -144 421 43 75 111 119 206 133 67 10 108 6 179 -15z"/>
<path d="M2935 1543 c-50 -69 -154 -285 -168 -349 -22 -108 23 -192 150 -275
138 -90 467 -237 893 -399 300 -114 362 -130 410 -105 106 55 241 294 244 433
1 56 -2 65 -24 82 -22 17 -164 96 -270 151 -71 37 -499 239 -505 239 -2 0 -43
18 -92 41 -48 22 -113 51 -143 64 -30 13 -100 42 -155 65 -121 51 -262 100
-287 100 -10 0 -33 -21 -53 -47z"/>
</g>
</svg>
