<svg width="146" height="25" viewBox="0 0 146 25" fill="none" xmlns="http://www.w3.org/2000/svg"><g filter="url(#filter0_d_167171_2233)"><path d="M13.452 4.816L10.306 15.84H20.394L19.198 20H5.678C4.846 19.818 4.482 19.324 4.534 18.518L8.46 4.816H13.452ZM37.1215 20H21.0535L22.2495 15.84H27.7875L29.7635 8.976H24.2515L25.4215 4.816H41.4895L40.3195 8.976H34.7815L32.8055 15.84H38.3175L37.1215 20ZM43.3213 4.816H59.2333C60.0393 5.076 60.4293 5.57 60.3773 6.35L59.0513 10.978C59.7273 11.498 60.0653 12.096 60.0393 12.798L58.4013 18.518C57.9333 19.35 57.2833 19.844 56.3993 20H38.9793L43.3213 4.816ZM47.2213 14.488L48.3913 10.354H54.1633L54.5793 8.976H47.1953L45.2193 15.84H54.0073L54.3973 14.488H47.2213ZM61.385 20C60.605 19.792 60.241 19.298 60.241 18.518L62.581 10.354H77.635L76.465 14.462H66.455L66.065 15.84H78.779L77.583 20H61.385ZM65.727 4.816H81.925L80.755 8.976H62.997L63.751 6.35C64.219 5.544 64.869 5.024 65.727 4.816ZM83.794 4.816H100.07C100.746 4.998 101.136 5.44 101.188 6.168L99.16 13.162C98.848 13.682 98.562 14.02 98.276 14.228C97.99 14.436 97.548 14.514 96.95 14.514H94.064L97.47 20H91.178L87.694 14.358L88.838 10.354H95L95.416 8.976H87.668L84.496 20H79.452L83.794 4.816ZM121.179 4.816L120.009 8.976H112.183L110.207 15.84H114.029L112.833 20H105.553C104.721 19.818 104.357 19.324 104.435 18.518L107.191 8.976H102.251L103.421 4.816H121.179ZM123.048 4.816H128.092L126.506 10.354H134.202L135.788 4.816H140.806L136.88 18.518C136.412 19.35 135.762 19.844 134.904 20H118.706L119.902 15.84H132.642L133.032 14.488H121.852C121.046 14.332 120.682 13.812 120.734 12.928L123.048 4.816Z" fill="black" fill-opacity="0.8" shape-rendering="crispEdges"/><path d="M13.452 4.816L13.9328 4.95321L14.1147 4.316H13.452V4.816ZM10.306 15.84L9.8252 15.7028L9.64335 16.34H10.306V15.84ZM20.394 15.84L20.8745 15.9782L21.058 15.34H20.394V15.84ZM19.198 20V20.5H19.5745L19.6785 20.1382L19.198 20ZM5.678 20L5.57115 20.4885L5.62395 20.5H5.678V20ZM4.534 18.518L4.05334 18.3803L4.03851 18.4321L4.03504 18.4858L4.534 18.518ZM8.46 4.816V4.316H8.08314L7.97934 4.67828L8.46 4.816ZM13.452 4.816L12.9712 4.67879L9.8252 15.7028L10.306 15.84L10.7868 15.9772L13.9328 4.95321L13.452 4.816ZM10.306 15.84V16.34H20.394V15.84V15.34H10.306V15.84ZM20.394 15.84L19.9135 15.7018L18.7175 19.8618L19.198 20L19.6785 20.1382L20.8745 15.9782L20.394 15.84ZM19.198 20V19.5H5.678V20V20.5H19.198V20ZM5.678 20L5.78485 19.5115C5.44359 19.4369 5.26668 19.3138 5.17198 19.1897C5.07811 19.0667 5.01211 18.8734 5.03296 18.5502L4.534 18.518L4.03504 18.4858C4.00389 18.9686 4.09389 19.4253 4.37702 19.7963C4.65932 20.1662 5.08041 20.3811 5.57115 20.4885L5.678 20ZM4.534 18.518L5.01466 18.6557L8.94066 4.95372L8.46 4.816L7.97934 4.67828L4.05334 18.3803L4.534 18.518ZM8.46 4.816V5.316H13.452V4.816V4.316H8.46V4.816ZM37.1215 20V20.5H37.4981L37.6021 20.1382L37.1215 20ZM21.0535 20L20.573 19.8618L20.3895 20.5H21.0535V20ZM22.2495 15.84V15.34H21.873L21.769 15.7018L22.2495 15.84ZM27.7875 15.84V16.34H28.1639L28.268 15.9783L27.7875 15.84ZM29.7635 8.976L30.244 9.11432L30.4278 8.476H29.7635V8.976ZM24.2515 8.976L23.7702 8.84063L23.5915 9.476H24.2515V8.976ZM25.4215 4.816V4.316H25.0428L24.9402 4.68063L25.4215 4.816ZM41.4895 4.816L41.9709 4.95137L42.1496 4.316H41.4895V4.816ZM40.3195 8.976V9.476H40.6983L40.8009 9.11137L40.3195 8.976ZM34.7815 8.976V8.476H34.4052L34.3011 8.83768L34.7815 8.976ZM32.8055 15.84L32.3251 15.7017L32.1413 16.34H32.8055V15.84ZM38.3175 15.84L38.7981 15.9782L38.9816 15.34H38.3175V15.84ZM37.1215 20V19.5H21.0535V20V20.5H37.1215V20ZM21.0535 20L21.5341 20.1382L22.7301 15.9782L22.2495 15.84L21.769 15.7018L20.573 19.8618L21.0535 20ZM22.2495 15.84V16.34H27.7875V15.84V15.34H22.2495V15.84ZM27.7875 15.84L28.268 15.9783L30.244 9.11432L29.7635 8.976L29.2831 8.83768L27.3071 15.7017L27.7875 15.84ZM29.7635 8.976V8.476H24.2515V8.976V9.476H29.7635V8.976ZM24.2515 8.976L24.7329 9.11137L25.9029 4.95137L25.4215 4.816L24.9402 4.68063L23.7702 8.84063L24.2515 8.976ZM25.4215 4.816V5.316H41.4895V4.816V4.316H25.4215V4.816ZM41.4895 4.816L41.0082 4.68063L39.8382 8.84063L40.3195 8.976L40.8009 9.11137L41.9709 4.95137L41.4895 4.816ZM40.3195 8.976V8.476H34.7815V8.976V9.476H40.3195V8.976ZM34.7815 8.976L34.3011 8.83768L32.3251 15.7017L32.8055 15.84L33.286 15.9783L35.262 9.11432L34.7815 8.976ZM32.8055 15.84V16.34H38.3175V15.84V15.34H32.8055V15.84ZM38.3175 15.84L37.837 15.7018L36.641 19.8618L37.1215 20L37.6021 20.1382L38.7981 15.9782L38.3175 15.84ZM43.3213 4.816V4.316H42.9443L42.8406 4.67853L43.3213 4.816ZM59.2333 4.816L59.3868 4.34014L59.312 4.316H59.2333V4.816ZM60.3773 6.35L60.858 6.48772L60.8727 6.43646L60.8762 6.38326L60.3773 6.35ZM59.0513 10.978L58.5707 10.8403L58.477 11.1671L58.7465 11.3743L59.0513 10.978ZM60.0393 12.798L60.52 12.9356L60.5367 12.8772L60.539 12.8165L60.0393 12.798ZM58.4013 18.518L58.8371 18.7631L58.8659 18.712L58.882 18.6556L58.4013 18.518ZM56.3993 20V20.5H56.4431L56.4862 20.4924L56.3993 20ZM38.9793 20L38.4986 19.8625L38.3163 20.5H38.9793V20ZM47.2213 14.488L46.7402 14.3518L46.5602 14.988H47.2213V14.488ZM48.3913 10.354V9.854H48.0132L47.9102 10.2178L48.3913 10.354ZM54.1633 10.354V10.854H54.5347L54.642 10.4985L54.1633 10.354ZM54.5793 8.976L55.058 9.1205L55.2526 8.476H54.5793V8.976ZM47.1953 8.976V8.476H46.819L46.7148 8.83768L47.1953 8.976ZM45.2193 15.84L44.7388 15.7017L44.5551 16.34H45.2193V15.84ZM54.0073 15.84V16.34H54.3835L54.4877 15.9786L54.0073 15.84ZM54.3973 14.488L54.8777 14.6266L55.0619 13.988H54.3973V14.488ZM43.3213 4.816V5.316H59.2333V4.816V4.316H43.3213V4.816ZM59.2333 4.816L59.0798 5.29185C59.421 5.40192 59.6179 5.54367 59.7283 5.68963C59.8332 5.82835 59.8982 6.02092 59.8784 6.31674L60.3773 6.35L60.8762 6.38326C60.9085 5.89908 60.8044 5.45465 60.5258 5.08637C60.2528 4.72533 59.8516 4.49008 59.3868 4.34014L59.2333 4.816ZM60.3773 6.35L59.8967 6.21228L58.5707 10.8403L59.0513 10.978L59.532 11.1157L60.858 6.48772L60.3773 6.35ZM59.0513 10.978L58.7465 11.3743C59.3337 11.826 59.5581 12.2832 59.5397 12.7795L60.0393 12.798L60.539 12.8165C60.5726 11.9088 60.121 11.17 59.3562 10.5817L59.0513 10.978ZM60.0393 12.798L59.5586 12.6604L57.9206 18.3804L58.4013 18.518L58.882 18.6556L60.52 12.9356L60.0393 12.798ZM58.4013 18.518L57.9655 18.2729C57.5621 18.9901 57.0321 19.3806 56.3124 19.5076L56.3993 20L56.4862 20.4924C57.5345 20.3074 58.3045 19.7099 58.8371 18.7631L58.4013 18.518ZM56.3993 20V19.5H38.9793V20V20.5H56.3993V20ZM38.9793 20L39.4601 20.1375L43.8021 4.95347L43.3213 4.816L42.8406 4.67853L38.4986 19.8625L38.9793 20ZM47.2213 14.488L47.7024 14.6242L48.8724 10.4902L48.3913 10.354L47.9102 10.2178L46.7402 14.3518L47.2213 14.488ZM48.3913 10.354V10.854H54.1633V10.354V9.854H48.3913V10.354ZM54.1633 10.354L54.642 10.4985L55.058 9.1205L54.5793 8.976L54.1007 8.8315L53.6847 10.2095L54.1633 10.354ZM54.5793 8.976V8.476H47.1953V8.976V9.476H54.5793V8.976ZM47.1953 8.976L46.7148 8.83768L44.7388 15.7017L45.2193 15.84L45.6998 15.9783L47.6758 9.11432L47.1953 8.976ZM45.2193 15.84V16.34H54.0073V15.84V15.34H45.2193V15.84ZM54.0073 15.84L54.4877 15.9786L54.8777 14.6266L54.3973 14.488L53.9169 14.3494L53.5269 15.7014L54.0073 15.84ZM54.3973 14.488V13.988H47.2213V14.488V14.988H54.3973V14.488ZM61.385 20L61.2562 20.4831L61.3195 20.5H61.385V20ZM60.241 18.518L59.7604 18.3802L59.741 18.4478V18.518H60.241ZM62.581 10.354V9.854H62.2042L62.1004 10.2162L62.581 10.354ZM77.635 10.354L78.1159 10.491L78.2973 9.854H77.635V10.354ZM76.465 14.462V14.962H76.8425L76.9459 14.599L76.465 14.462ZM66.455 14.462V13.962H66.0769L65.9739 14.3258L66.455 14.462ZM66.065 15.84L65.5839 15.7038L65.4039 16.34H66.065V15.84ZM78.779 15.84L79.2596 15.9782L79.443 15.34H78.779V15.84ZM77.583 20V20.5H77.9595L78.0636 20.1382L77.583 20ZM65.727 4.816V4.316H65.6673L65.6092 4.33007L65.727 4.816ZM81.925 4.816L82.4064 4.95137L82.5851 4.316H81.925V4.816ZM80.755 8.976V9.476H81.1338L81.2364 9.11137L80.755 8.976ZM62.997 8.976L62.5164 8.83801L62.3333 9.476H62.997V8.976ZM63.751 6.35L63.3186 6.09893L63.2875 6.15249L63.2704 6.21201L63.751 6.35ZM61.385 20L61.5139 19.5169C61.2006 19.4333 61.0225 19.3071 60.918 19.1702C60.8132 19.0328 60.741 18.8305 60.741 18.518H60.241H59.741C59.741 18.9855 59.8509 19.4202 60.1231 19.7768C60.3955 20.1339 60.7895 20.3587 61.2562 20.4831L61.385 20ZM60.241 18.518L60.7217 18.6558L63.0617 10.4918L62.581 10.354L62.1004 10.2162L59.7604 18.3802L60.241 18.518ZM62.581 10.354V10.854H77.635V10.354V9.854H62.581V10.354ZM77.635 10.354L77.1542 10.217L75.9842 14.325L76.465 14.462L76.9459 14.599L78.1159 10.491L77.635 10.354ZM76.465 14.462V13.962H66.455V14.462V14.962H76.465V14.462ZM66.455 14.462L65.9739 14.3258L65.5839 15.7038L66.065 15.84L66.5461 15.9762L66.9361 14.5982L66.455 14.462ZM66.065 15.84V16.34H78.779V15.84V15.34H66.065V15.84ZM78.779 15.84L78.2985 15.7018L77.1025 19.8618L77.583 20L78.0636 20.1382L79.2596 15.9782L78.779 15.84ZM77.583 20V19.5H61.385V20V20.5H77.583V20ZM65.727 4.816V5.316H81.925V4.816V4.316H65.727V4.816ZM81.925 4.816L81.4437 4.68063L80.2737 8.84063L80.755 8.976L81.2364 9.11137L82.4064 4.95137L81.925 4.816ZM80.755 8.976V8.476H62.997V8.976V9.476H80.755V8.976ZM62.997 8.976L63.4776 9.11399L64.2316 6.48799L63.751 6.35L63.2704 6.21201L62.5164 8.83801L62.997 8.976ZM63.751 6.35L64.1834 6.60107C64.5914 5.8985 65.1348 5.47406 65.8448 5.30192L65.727 4.816L65.6092 4.33007C64.6033 4.57394 63.8467 5.1895 63.3186 6.09893L63.751 6.35ZM83.794 4.816V4.316H83.4169L83.3133 4.67853L83.794 4.816ZM100.07 4.816L100.2 4.33319L100.136 4.316H100.07V4.816ZM101.188 6.168L101.668 6.30725L101.693 6.22146L101.687 6.13238L101.188 6.168ZM99.16 13.162L99.5887 13.4192L99.6221 13.3636L99.6402 13.3012L99.16 13.162ZM98.276 14.228L97.9819 13.8236L97.9819 13.8236L98.276 14.228ZM94.064 14.514V14.014H93.165L93.6392 14.7777L94.064 14.514ZM97.47 20V20.5H98.3689L97.8948 19.7363L97.47 20ZM91.178 20L90.7526 20.2627L90.8991 20.5H91.178V20ZM87.694 14.358L87.2132 14.2206L87.1526 14.4329L87.2686 14.6207L87.694 14.358ZM88.838 10.354V9.854H88.4608L88.3572 10.2166L88.838 10.354ZM95 10.354V10.854H95.3713L95.4786 10.4985L95 10.354ZM95.416 8.976L95.8946 9.1205L96.0892 8.476H95.416V8.976ZM87.668 8.976V8.476H87.2916L87.1875 8.83774L87.668 8.976ZM84.496 20V20.5H84.8724L84.9765 20.1383L84.496 20ZM79.452 20L78.9713 19.8625L78.789 20.5H79.452V20ZM83.794 4.816V5.316H100.07V4.816V4.316H83.794V4.816ZM100.07 4.816L99.94 5.29881C100.203 5.3695 100.372 5.47966 100.48 5.60898C100.588 5.73726 100.669 5.92311 100.689 6.20362L101.188 6.168L101.687 6.13238C101.655 5.68489 101.515 5.28574 101.246 4.96552C100.977 4.64634 100.613 4.44449 100.2 4.33319L100.07 4.816ZM101.188 6.168L100.708 6.02875L98.6798 13.0228L99.16 13.162L99.6402 13.3012L101.668 6.30725L101.188 6.168ZM99.16 13.162L98.7312 12.9048C98.4357 13.3974 98.1909 13.6716 97.9819 13.8236L98.276 14.228L98.5701 14.6324C98.933 14.3684 99.2603 13.9666 99.5887 13.4192L99.16 13.162ZM98.276 14.228L97.9819 13.8236C97.8336 13.9315 97.5336 14.014 96.95 14.014V14.514V15.014C97.5624 15.014 98.1464 14.9405 98.5701 14.6324L98.276 14.228ZM96.95 14.514V14.014H94.064V14.514V15.014H96.95V14.514ZM94.064 14.514L93.6392 14.7777L97.0452 20.2637L97.47 20L97.8948 19.7363L94.4888 14.2503L94.064 14.514ZM97.47 20V19.5H91.178V20V20.5H97.47V20ZM91.178 20L91.6034 19.7373L88.1194 14.0953L87.694 14.358L87.2686 14.6207L90.7526 20.2627L91.178 20ZM87.694 14.358L88.1747 14.4954L89.3187 10.4914L88.838 10.354L88.3572 10.2166L87.2132 14.2206L87.694 14.358ZM88.838 10.354V10.854H95V10.354V9.854H88.838V10.354ZM95 10.354L95.4786 10.4985L95.8946 9.1205L95.416 8.976L94.9373 8.8315L94.5213 10.2095L95 10.354ZM95.416 8.976V8.476H87.668V8.976V9.476H95.416V8.976ZM87.668 8.976L87.1875 8.83774L84.0155 19.8617L84.496 20L84.9765 20.1383L88.1485 9.11426L87.668 8.976ZM84.496 20V19.5H79.452V20V20.5H84.496V20ZM79.452 20L79.9327 20.1375L84.2747 4.95347L83.794 4.816L83.3133 4.67853L78.9713 19.8625L79.452 20ZM121.179 4.816L121.66 4.95137L121.839 4.316H121.179V4.816ZM120.009 8.976V9.476H120.388L120.49 9.11137L120.009 8.976ZM112.183 8.976V8.476H111.807L111.702 8.83768L112.183 8.976ZM110.207 15.84L109.726 15.7017L109.543 16.34H110.207V15.84ZM114.029 15.84L114.509 15.9782L114.693 15.34H114.029V15.84ZM112.833 20V20.5H113.209L113.313 20.1382L112.833 20ZM105.553 20L105.446 20.4885L105.499 20.5H105.553V20ZM104.435 18.518L103.955 18.3793L103.942 18.4237L103.937 18.4698L104.435 18.518ZM107.191 8.976L107.671 9.11474L107.856 8.476H107.191V8.976ZM102.251 8.976L101.77 8.84063L101.591 9.476H102.251V8.976ZM103.421 4.816V4.316H103.042L102.94 4.68063L103.421 4.816ZM121.179 4.816L120.698 4.68063L119.528 8.84063L120.009 8.976L120.49 9.11137L121.66 4.95137L121.179 4.816ZM120.009 8.976V8.476H112.183V8.976V9.476H120.009V8.976ZM112.183 8.976L111.702 8.83768L109.726 15.7017L110.207 15.84L110.687 15.9783L112.663 9.11432L112.183 8.976ZM110.207 15.84V16.34H114.029V15.84V15.34H110.207V15.84ZM114.029 15.84L113.548 15.7018L112.352 19.8618L112.833 20L113.313 20.1382L114.509 15.9782L114.029 15.84ZM112.833 20V19.5H105.553V20V20.5H112.833V20ZM105.553 20L105.66 19.5115C105.317 19.4367 105.143 19.3136 105.053 19.193C104.964 19.0748 104.902 18.8865 104.933 18.5662L104.435 18.518L103.937 18.4698C103.89 18.9555 103.971 19.4172 104.253 19.793C104.533 20.1664 104.956 20.3813 105.446 20.4885L105.553 20ZM104.435 18.518L104.915 18.6567L107.671 9.11474L107.191 8.976L106.711 8.83726L103.955 18.3793L104.435 18.518ZM107.191 8.976V8.476H102.251V8.976V9.476H107.191V8.976ZM102.251 8.976L102.732 9.11137L103.902 4.95137L103.421 4.816L102.94 4.68063L101.77 8.84063L102.251 8.976ZM103.421 4.816V5.316H121.179V4.816V4.316H103.421V4.816ZM123.048 4.816V4.316H122.671L122.567 4.67884L123.048 4.816ZM128.092 4.816L128.573 4.95366L128.755 4.316H128.092V4.816ZM126.506 10.354L126.025 10.2163L125.843 10.854H126.506V10.354ZM134.202 10.354V10.854H134.579L134.683 10.4917L134.202 10.354ZM135.788 4.816V4.316H135.411L135.307 4.67834L135.788 4.816ZM140.806 4.816L141.287 4.95372L141.469 4.316H140.806V4.816ZM136.88 18.518L137.316 18.7631L137.344 18.7121L137.361 18.6557L136.88 18.518ZM134.904 20V20.5H134.949L134.993 20.4919L134.904 20ZM118.706 20L118.225 19.8618L118.042 20.5H118.706V20ZM119.902 15.84V15.34H119.525L119.421 15.7018L119.902 15.84ZM132.642 15.84V16.34H133.018L133.122 15.9786L132.642 15.84ZM133.032 14.488L133.512 14.6266L133.697 13.988H133.032V14.488ZM121.852 14.488L121.757 14.9789L121.804 14.988H121.852V14.488ZM120.734 12.928L120.253 12.7908L120.238 12.8437L120.235 12.8986L120.734 12.928ZM123.048 4.816V5.316H128.092V4.816V4.316H123.048V4.816ZM128.092 4.816L127.611 4.67834L126.025 10.2163L126.506 10.354L126.987 10.4917L128.573 4.95366L128.092 4.816ZM126.506 10.354V10.854H134.202V10.354V9.854H126.506V10.354ZM134.202 10.354L134.683 10.4917L136.269 4.95366L135.788 4.816L135.307 4.67834L133.721 10.2163L134.202 10.354ZM135.788 4.816V5.316H140.806V4.816V4.316H135.788V4.816ZM140.806 4.816L140.325 4.67828L136.399 18.3803L136.88 18.518L137.361 18.6557L141.287 4.95372L140.806 4.816ZM136.88 18.518L136.444 18.2729C136.039 18.9923 135.508 19.382 134.814 19.5081L134.904 20L134.993 20.4919C136.016 20.306 136.784 19.7077 137.316 18.7631L136.88 18.518ZM134.904 20V19.5H118.706V20V20.5H134.904V20ZM118.706 20L119.186 20.1382L120.382 15.9782L119.902 15.84L119.421 15.7018L118.225 19.8618L118.706 20ZM119.902 15.84V16.34H132.642V15.84V15.34H119.902V15.84ZM132.642 15.84L133.122 15.9786L133.512 14.6266L133.032 14.488L132.551 14.3494L132.161 15.7014L132.642 15.84ZM133.032 14.488V13.988H121.852V14.488V14.988H133.032V14.488ZM121.852 14.488L121.947 13.9971C121.633 13.9364 121.47 13.8196 121.378 13.6909C121.282 13.555 121.211 13.3308 121.233 12.9574L120.734 12.928L120.235 12.8986C120.205 13.4092 120.29 13.887 120.564 14.2711C120.843 14.6624 121.264 14.8836 121.757 14.9789L121.852 14.488ZM120.734 12.928L121.215 13.0652L123.529 4.95316L123.048 4.816L122.567 4.67884L120.253 12.7908L120.734 12.928Z" fill="#31FF00"/></g><defs><filter id="filter0_d_167171_2233" x="0.0292969" y="0.316406" width="145.44" height="24.1836" filterUnits="userSpaceOnUse" color-interpolation-filters="sRGB"><feFlood flood-opacity="0" result="BackgroundImageFix"/><feColorMatrix in="SourceAlpha" type="matrix" values="0 0 0 0 0 0 0 0 0 0 0 0 0 0 0 0 0 0 127 0" result="hardAlpha"/><feOffset/><feGaussianBlur stdDeviation="2"/><feComposite in2="hardAlpha" operator="out"/><feColorMatrix type="matrix" values="0 0 0 0 0.192157 0 0 0 0 1 0 0 0 0 0 0 0 0 0.6 0"/><feBlend mode="normal" in2="BackgroundImageFix" result="effect1_dropShadow_167171_2233"/><feBlend mode="normal" in="SourceGraphic" in2="effect1_dropShadow_167171_2233" result="shape"/></filter></defs></svg>