<?xml version="1.0" encoding="utf-8"?><svg viewBox="0 0 800 800" xmlns="http://www.w3.org/2000/svg" xmlns:xlink="http://www.w3.org/1999/xlink"><style>:root>svg{display:none}:root>svg:target{display:block}</style><svg viewBox="0 0 24 24" id="arrow" xmlns="http://www.w3.org/2000/svg"><path fill-rule="evenodd" clip-rule="evenodd" d="M14.793 6.793a1 1 0 0 1 1.414 0l4.5 4.5a1 1 0 0 1 0 1.414l-4.5 4.5a1 1 0 0 1-1.414-1.414L17.586 13H4a1 1 0 1 1 0-2h13.586l-2.793-2.793a1 1 0 0 1 0-1.414Z"/></svg><svg viewBox="0 0 24 24" id="chat" xmlns="http://www.w3.org/2000/svg"><path fill-rule="evenodd" clip-rule="evenodd" d="M21.923 10.567a7.753 7.753 0 0 1-.98 2.787c.037.214.056.43.056.647a4.02 4.02 0 0 1-.622 2.127c-.201.327-.253.71-.273.963-.023.29-.015.607.005.912.023.342.066.7.114 1.04a19.91 19.91 0 0 0-1.217-.32 8.679 8.679 0 0 0-.991-.172c-.272-.029-.664-.05-1.015.063a8.139 8.139 0 0 1-2.5.386 8.045 8.045 0 0 1-2.882-.514 13.24 13.24 0 0 1-4.068-.437C9.129 19.873 11.728 21 14.5 21c1.082 0 2.122-.166 3.08-.471h.009c.025 0 .093-.002.22.01.201.022.459.068.756.135.593.134 1.258.33 1.777.495 1.1.35 2.166-.61 1.97-1.727a15.772 15.772 0 0 1-.207-1.575 4.46 4.46 0 0 1-.007-.619c.005-.064.011-.103.015-.125A6.012 6.012 0 0 0 23 14a6.026 6.026 0 0 0-1.077-3.433Z"/><path fill-rule="evenodd" clip-rule="evenodd" d="M5.597 5.698C4.249 6.728 3.5 8.082 3.5 9.5c0 .707.184 1.388.529 2.021.131.241.169.49.182.659.015.183.007.372-.009.549a8.768 8.768 0 0 1-.2 1.148c-.106.46-.243.953-.383 1.415a27.508 27.508 0 0 1 1.653-.549c.443-.129.89-.24 1.287-.304.343-.054.84-.107 1.268.041.96.332 2.034.52 3.173.52 2.147 0 4.054-.667 5.403-1.698C17.75 12.27 18.5 10.918 18.5 9.5c0-1.418-.75-2.771-2.097-3.802C15.053 4.667 13.147 4 11 4c-2.148 0-4.054.667-5.403 1.698ZM4.382 4.11C6.109 2.79 8.452 2 11 2c2.547 0 4.89.788 6.617 2.11C19.346 5.43 20.5 7.327 20.5 9.5c0 2.172-1.154 4.069-2.883 5.39C15.89 16.213 13.547 17 11 17c-1.343 0-2.626-.219-3.791-.617-.001.003-.096-.006-.338.032-.278.044-.634.13-1.038.248-.806.235-1.71.568-2.4.836-1.193.464-2.409-.682-2.007-1.903.213-.647.465-1.465.628-2.171a6.86 6.86 0 0 0 .157-.877 1.83 1.83 0 0 0 .008-.17 6.176 6.176 0 0 1-.72-2.878c0-2.172 1.154-4.069 2.883-5.39Z"/></svg><svg viewBox="0 0 24 24" id="chevron" xmlns="http://www.w3.org/2000/svg"><path fill-rule="evenodd" clip-rule="evenodd" d="M4.293 15.707a1 1 0 0 1 0-1.414l7-7a1 1 0 0 1 1.414 0l7 7a1 1 0 0 1-1.414 1.414L12 9.414l-6.293 6.293a1 1 0 0 1-1.414 0Z"/></svg><svg viewBox="0 0 128 128" xml:space="preserve" id="forum" xmlns="http://www.w3.org/2000/svg"><path d="M64 42c-13.2 0-24 10.8-24 24s10.8 24 24 24 24-10.8 24-24-10.8-24-24-24zm0 40c-8.8 0-16-7.2-16-16s7.2-16 16-16 16 7.2 16 16-7.2 16-16 16zm0 18.8c-14.9 0-29.2 6.2-39.4 17.1l-2.7 2.9 5.8 5.5 2.7-2.9c8.8-9.4 20.7-14.6 33.6-14.6s24.8 5.2 33.6 14.6l2.7 2.9 5.8-5.5-2.7-2.9c-10.2-10.8-24.5-17.1-39.4-17.1zm33-52.9v8c9.4 0 18.1 3.8 24.6 10.7l5.8-5.5c-7.8-8.4-18.9-13.2-30.4-13.2zM116.1 20C116.1 9.5 107.5.9 97 .9S77.9 9.5 77.9 20 86.5 39.1 97 39.1s19.1-8.6 19.1-19.1zm-30.2 0c0-6.1 5-11.1 11.1-11.1s11.1 5 11.1 11.1-5 11.1-11.1 11.1-11.1-5-11.1-11.1zM31 47.9C19.5 47.9 8.4 52.7.6 61.1l5.8 5.5c6.4-6.9 15.2-10.7 24.6-10.7v-8zM50.1 20C50.1 9.5 41.5.9 31 .9S11.9 9.5 11.9 20 20.5 39.1 31 39.1 50.1 30.5 50.1 20zM31 31.1c-6.1 0-11.1-5-11.1-11.1S24.9 8.9 31 8.9s11.1 5 11.1 11.1-5 11.1-11.1 11.1z"/></svg><svg viewBox="0 0 48 48" id="like" xmlns="http://www.w3.org/2000/svg"><path d="M44.017 29.719a4.204 4.204 0 0 0 1.077-2.813 4.224 4.224 0 0 0-4.219-4.218h-8.188c.81-2.461 1.157-5.727 1.157-7.126v-1.406a5.632 5.632 0 0 0-5.625-5.625h-1.407c-.645 0-1.207.439-1.364 1.065l-.765 3.065c-1.074 4.292-4.482 9.027-8.009 9.888a4.225 4.225 0 0 0-3.924-2.674H4.312c-.776 0-1.406.63-1.406 1.406v25.313c0 .776.63 1.406 1.406 1.406h8.438a4.223 4.223 0 0 0 3.808-2.405l4.832 1.61c1.58.528 3.226.795 4.892.795h11.78a4.224 4.224 0 0 0 3.923-5.773 4.227 4.227 0 0 0 3.109-4.07 4.203 4.203 0 0 0-1.077-2.813 4.204 4.204 0 0 0 1.077-2.813 4.203 4.203 0 0 0-1.077-2.812ZM14.157 43.78c0 .776-.632 1.407-1.407 1.407H5.719v-22.5h7.031c.775 0 1.406.63 1.406 1.406V43.78Zm23.905-12.656h2.813a1.407 1.407 0 0 1 0 2.813h-2.813a1.407 1.407 0 0 0 0 2.812h2.813a1.407 1.407 0 0 1 0 2.813h-2.813a1.407 1.407 0 0 0 0 2.812 1.408 1.408 0 0 1 0 2.813h-11.78c-1.363 0-2.71-.219-4.003-.65l-5.31-1.77v-17.4c2.206-.42 4.365-1.816 6.314-4.103 1.903-2.233 3.446-5.193 4.128-7.92l.5-2h.308a2.816 2.816 0 0 1 2.812 2.812v1.406c0 1.888-.59 5.51-1.346 7.126h-2.872a1.407 1.407 0 0 0 0 2.812h14.062a1.407 1.407 0 0 1 0 2.813h-2.813a1.407 1.407 0 0 0 0 2.812Z"/><path d="M9.938 42.375a1.406 1.406 0 1 0 0-2.813 1.406 1.406 0 0 0 0 2.813ZM29.625 0c-.777 0-1.406.63-1.406 1.406v2.907a1.406 1.406 0 0 0 2.812 0V1.405C31.031.63 30.401 0 29.625 0Zm-5.966 6.201L21.67 4.213A1.406 1.406 0 1 0 19.681 6.2l1.99 1.99a1.406 1.406 0 0 0 1.988-1.99Zm15.91-1.988c-.55-.55-1.44-.55-1.989 0L35.592 6.2a1.406 1.406 0 1 0 1.988 1.99l1.99-1.99c.55-.549.55-1.44 0-1.988Z"/></svg><svg viewBox="0 0 24 24" id="telegram" xmlns="http://www.w3.org/2000/svg"><path d="m9.633 15.181-.364 5.584c.52 0 .746-.244 1.016-.537l2.441-2.545 5.059 4.041c.927.564 1.581.267 1.831-.93l3.32-16.973h.001c.295-1.497-.495-2.082-1.4-1.715L2.022 10.257c-1.332.564-1.311 1.374-.226 1.741l4.99 1.693 11.59-7.91c.545-.395 1.04-.177.633.217l-9.375 9.183Z"/></svg><svg viewBox="1 1 21 21" id="tg-bot" xmlns="http://www.w3.org/2000/svg"><path d="M21.928 11.607c-.202-.488-.635-.605-.928-.633V8c0-1.103-.897-2-2-2h-6V4.61c.305-.274.5-.668.5-1.11a1.5 1.5 0 0 0-3 0c0 .442.195.836.5 1.11V6H5c-1.103 0-2 .897-2 2v2.997l-.082.006A1 1 0 0 0 1.99 12v2a1 1 0 0 0 1 1H3v5c0 1.103.897 2 2 2h14c1.103 0 2-.897 2-2v-5a1 1 0 0 0 1-1v-1.938a1.006 1.006 0 0 0-.072-.455zM5 20V8h14l.001 3.996L19 12v2l.001.005.001 5.995H5z"/><ellipse cx="8.5" cy="12" rx="1.5" ry="2"/><ellipse cx="15.5" cy="12" rx="1.5" ry="2"/><path d="M8 16h8v2H8z"/></svg></svg>